<?xml version="1.0" encoding="utf-8"?>
<!-- Generator: Adobe Illustrator 16.0.4, SVG Export Plug-In . SVG Version: 6.00 Build 0)  -->
<!DOCTYPE svg PUBLIC "-//W3C//DTD SVG 1.1//EN" "http://www.w3.org/Graphics/SVG/1.1/DTD/svg11.dtd">
<svg version="1.1" id="Layer_1" xmlns="http://www.w3.org/2000/svg" xmlns:xlink="http://www.w3.org/1999/xlink" x="0px" y="0px"
	 width="214.169px" height="90.063px" viewBox="0 0 214.169 90.063" enable-background="new 0 0 214.169 90.063"
	 xml:space="preserve">
<g>
	<g>
		<path d="M90.24,87.253c-1.405,0.938-2.584,1.64-3.536,2.107c-0.952,0.469-1.64,0.703-2.062,0.703c-0.528,0-0.956-0.34-1.28-1.02
			c-0.325-0.68-0.548-1.783-0.669-3.309c-0.619,0.694-1.208,1.311-1.768,1.847s-1.133,0.989-1.723,1.36
			c-0.589,0.369-1.201,0.648-1.836,0.838s-1.33,0.283-2.085,0.283c-0.892,0-1.802-0.245-2.731-0.736
			c-0.929-0.491-1.771-1.197-2.527-2.119s-1.375-2.047-1.858-3.377c-0.484-1.33-0.726-2.834-0.726-4.51
			c0-0.922,0.117-1.848,0.352-2.777c0.234-0.93,0.574-1.828,1.02-2.697c0.445-0.869,0.989-1.681,1.632-2.436
			c0.642-0.756,1.363-1.414,2.164-1.973c0.801-0.559,1.674-1,2.618-1.326c0.944-0.324,1.945-0.486,3.003-0.486
			c0.71,0,1.417,0.086,2.119,0.26s1.462,0.549,2.278,1.123v-8.273c0-0.831-0.019-1.492-0.057-1.982
			c-0.038-0.492-0.159-0.869-0.363-1.134c-0.204-0.265-0.521-0.446-0.952-0.544s-1.046-0.178-1.847-0.238v-1.11
			c1.375-0.166,2.614-0.39,3.717-0.669c1.104-0.279,2.048-0.547,2.833-0.805l0.748,0.726v28.309c0,0.528,0.012,0.978,0.034,1.349
			c0.022,0.37,0.057,0.68,0.102,0.93c0.046,0.248,0.099,0.449,0.159,0.6c0.061,0.151,0.136,0.272,0.227,0.363
			c0.075,0.075,0.17,0.125,0.283,0.146c0.113,0.023,0.272,0.016,0.476-0.021c0.204-0.039,0.454-0.103,0.748-0.193
			c0.295-0.091,0.661-0.227,1.1-0.408L90.24,87.253z M82.624,83.423V73.021c-0.514-0.877-1.205-1.553-2.074-2.029
			c-0.869-0.477-1.84-0.714-2.913-0.714c-0.891,0-1.711,0.166-2.459,0.499c-0.748,0.332-1.394,0.838-1.938,1.518
			c-0.544,0.681-0.967,1.53-1.269,2.551c-0.302,1.02-0.454,2.217-0.454,3.592c0,1.254,0.174,2.391,0.521,3.411
			s0.793,1.886,1.337,2.595c0.544,0.711,1.148,1.258,1.813,1.644c0.665,0.386,1.307,0.578,1.927,0.578
			c0.483,0,0.956-0.087,1.417-0.261c0.46-0.174,0.918-0.408,1.371-0.703c0.453-0.294,0.907-0.638,1.36-1.031
			C81.717,84.276,82.171,83.86,82.624,83.423z"/>
		<path d="M110.593,76.805c-0.271,0.302-0.672,0.601-1.201,0.896s-1.035,0.54-1.52,0.736H96.359
			c0.016,1.148,0.174,2.232,0.476,3.252c0.303,1.021,0.726,1.908,1.27,2.664s1.205,1.355,1.983,1.801
			c0.778,0.446,1.658,0.67,2.641,0.67c0.468,0,0.925-0.031,1.371-0.092c0.445-0.061,0.926-0.191,1.439-0.396
			c0.514-0.203,1.088-0.502,1.722-0.895c0.635-0.393,1.383-0.922,2.245-1.587c0.195,0.106,0.385,0.287,0.566,0.544
			s0.309,0.445,0.385,0.566c-1.027,1.088-1.934,1.965-2.719,2.629c-0.787,0.666-1.531,1.183-2.233,1.553
			c-0.703,0.371-1.397,0.616-2.085,0.736c-0.688,0.121-1.439,0.182-2.256,0.182c-1.209,0-2.354-0.253-3.434-0.76
			c-1.08-0.506-2.028-1.219-2.844-2.141c-0.816-0.922-1.466-2.033-1.949-3.332c-0.484-1.3-0.726-2.75-0.726-4.352
			c0-1.013,0.109-2.002,0.328-2.969c0.22-0.968,0.537-1.874,0.952-2.721c0.416-0.846,0.926-1.631,1.53-2.357
			c0.604-0.725,1.299-1.359,2.085-1.903c0.362-0.257,0.763-0.499,1.201-0.726s0.896-0.426,1.371-0.6
			c0.477-0.174,0.963-0.314,1.462-0.42s0.975-0.158,1.428-0.158c0.982,0,1.866,0.128,2.652,0.385
			c0.785,0.257,1.477,0.608,2.073,1.055c0.597,0.445,1.103,0.971,1.519,1.574c0.416,0.605,0.756,1.247,1.02,1.927
			c0.264,0.681,0.457,1.383,0.578,2.108C110.532,75.399,110.593,76.11,110.593,76.805z M101.867,70.118
			c-0.756,0-1.439,0.148-2.052,0.442c-0.611,0.295-1.145,0.71-1.598,1.247c-0.453,0.536-0.827,1.182-1.122,1.938
			c-0.294,0.756-0.502,1.586-0.623,2.493h8.976c0.348,0,0.578-0.057,0.691-0.17s0.17-0.329,0.17-0.646
			c0-0.424-0.061-0.938-0.182-1.542s-0.344-1.187-0.669-1.745c-0.324-0.559-0.774-1.035-1.349-1.428
			C103.537,70.315,102.789,70.118,101.867,70.118z"/>
	</g>
	<g>
		<path d="M21.101,44.995c-0.061,0.649-0.128,1.284-0.204,1.904c-0.076,0.619-0.159,1.197-0.25,1.733
			c-0.09,0.536-0.177,1.005-0.26,1.405c-0.083,0.4-0.155,0.714-0.216,0.94H0v-1.201c1.027-0.212,1.821-0.442,2.38-0.691
			s0.838-0.479,0.838-0.691V25.027c0-0.181-0.264-0.408-0.793-0.68C1.896,24.075,1.088,23.833,0,23.622v-1.201h18.834l0.793,0.612
			c-0.03,0.393-0.075,0.842-0.136,1.349s-0.136,1.02-0.227,1.541c-0.091,0.521-0.185,1.017-0.283,1.485
			c-0.099,0.468-0.193,0.846-0.284,1.133h-1.247c-0.075-1.39-0.264-2.38-0.566-2.969s-0.733-0.884-1.292-0.884H7.525v9.632h9.134
			L17.293,35c-0.121,0.211-0.269,0.446-0.442,0.703s-0.355,0.506-0.544,0.748c-0.188,0.242-0.377,0.469-0.566,0.68
			s-0.366,0.378-0.533,0.499c-0.227-0.227-0.472-0.416-0.737-0.566c-0.264-0.151-0.566-0.28-0.906-0.385
			c-0.34-0.106-0.74-0.182-1.201-0.227s-1.009-0.068-1.644-0.068H7.525v10.878c0,0.228,0.053,0.428,0.158,0.602
			c0.106,0.174,0.325,0.324,0.658,0.453c0.332,0.129,0.801,0.227,1.405,0.295c0.604,0.068,1.405,0.102,2.403,0.102h2.697
			c0.695,0,1.288-0.053,1.779-0.158s0.926-0.311,1.303-0.612c0.378-0.302,0.722-0.726,1.031-1.269
			c0.31-0.544,0.624-1.262,0.941-2.154L21.101,44.995z"/>
		<path d="M37.533,50.979v-1.201c1.088-0.287,1.877-0.536,2.369-0.748s0.737-0.423,0.737-0.635V36.972
			c0-0.892-0.045-1.625-0.136-2.199s-0.246-1.023-0.464-1.348c-0.219-0.325-0.503-0.552-0.85-0.68
			c-0.348-0.128-0.771-0.192-1.27-0.192c-0.438,0-0.917,0.09-1.439,0.271c-0.521,0.182-1.081,0.48-1.677,0.896
			s-1.235,0.959-1.915,1.632c-0.68,0.672-1.383,1.507-2.108,2.504v10.539c0,0.228,0.276,0.461,0.827,0.702
			c0.552,0.242,1.318,0.469,2.301,0.681v1.201H23.594v-1.201c0.997-0.257,1.764-0.487,2.3-0.691s0.805-0.435,0.805-0.691V35.022
			c0-0.589-0.019-1.058-0.057-1.405c-0.038-0.348-0.155-0.62-0.352-0.816c-0.196-0.196-0.502-0.34-0.918-0.431
			s-1.008-0.181-1.779-0.272v-1.133c1.163-0.166,2.221-0.393,3.173-0.68s1.896-0.642,2.833-1.065l0.839,0.839l0.249,4.85
			c0.74-0.922,1.515-1.738,2.323-2.448s1.609-1.303,2.402-1.779c0.793-0.476,1.56-0.838,2.301-1.088
			c0.74-0.249,1.405-0.374,1.994-0.374c0.65,0,1.277,0.102,1.881,0.306c0.604,0.204,1.137,0.518,1.598,0.94
			c0.46,0.423,0.831,0.963,1.11,1.621s0.419,1.447,0.419,2.369v13.938c0,0.106,0.053,0.208,0.159,0.306
			c0.105,0.099,0.279,0.201,0.521,0.307s0.563,0.223,0.963,0.352c0.4,0.128,0.896,0.268,1.484,0.419v1.201H37.533z"/>
		<path d="M67.541,18.024c0,0.166-0.125,0.393-0.374,0.68c-0.249,0.287-0.544,0.582-0.884,0.884s-0.688,0.585-1.042,0.85
			c-0.355,0.265-0.646,0.45-0.873,0.556c-0.726-0.726-1.439-1.254-2.142-1.587c-0.703-0.332-1.273-0.499-1.711-0.499
			c-0.393,0-0.797,0.128-1.213,0.385s-0.797,0.722-1.145,1.394s-0.634,1.594-0.861,2.765c-0.227,1.171-0.34,2.67-0.34,4.499V29.9
			h5.78l0.725,0.703c-0.136,0.227-0.306,0.468-0.51,0.725c-0.204,0.257-0.408,0.499-0.612,0.725s-0.404,0.431-0.601,0.612
			c-0.196,0.181-0.362,0.317-0.499,0.408c-0.348-0.181-0.846-0.359-1.496-0.533c-0.65-0.174-1.579-0.261-2.788-0.261V48.44
			c0,0.09,0.08,0.182,0.238,0.271c0.158,0.091,0.419,0.186,0.782,0.283c0.363,0.099,0.842,0.212,1.439,0.34
			c0.597,0.129,1.341,0.275,2.232,0.442v1.201H49.772v-1.201c1.042-0.181,1.821-0.404,2.334-0.669
			c0.514-0.264,0.771-0.486,0.771-0.668V32.28h-2.924l-0.521-0.702L51.2,29.9h1.677v-0.703c0-1.602,0.109-2.977,0.329-4.125
			s0.521-2.138,0.907-2.969s0.838-1.549,1.36-2.153c0.521-0.604,1.084-1.163,1.688-1.677c0.453-0.393,0.944-0.74,1.473-1.042
			s1.046-0.555,1.553-0.759c0.506-0.204,0.993-0.359,1.461-0.464c0.469-0.106,0.876-0.159,1.224-0.159
			c0.544,0,1.092,0.091,1.643,0.272c0.552,0.181,1.05,0.389,1.496,0.623c0.446,0.234,0.812,0.472,1.099,0.714
			C67.397,17.699,67.541,17.888,67.541,18.024z"/>
		<path d="M85.016,48.894c-1.284,0.891-2.429,1.574-3.434,2.051s-1.742,0.715-2.21,0.715c-0.529,0-0.963-0.341-1.303-1.021
			c-0.34-0.681-0.54-1.616-0.601-2.811c-0.68,0.694-1.36,1.284-2.04,1.769c-0.68,0.482-1.341,0.879-1.983,1.189
			c-0.642,0.31-1.258,0.532-1.847,0.668c-0.589,0.137-1.126,0.205-1.609,0.205c-0.574,0-1.152-0.096-1.734-0.284
			c-0.582-0.188-1.11-0.487-1.586-0.896s-0.865-0.929-1.167-1.563c-0.302-0.635-0.454-1.39-0.454-2.267
			c0-1.103,0.197-2.032,0.589-2.788c0.393-0.755,0.869-1.413,1.428-1.972c0.363-0.363,0.778-0.71,1.247-1.043
			c0.469-0.332,1.084-0.649,1.847-0.952c0.763-0.302,1.73-0.593,2.901-0.873c1.171-0.28,2.64-0.556,4.408-0.827v-3.015
			c0-0.499-0.053-0.963-0.159-1.394s-0.294-0.801-0.566-1.11c-0.272-0.31-0.635-0.552-1.088-0.725
			c-0.454-0.174-1.02-0.253-1.7-0.238c-0.453,0-0.891,0.076-1.314,0.227c-0.423,0.151-0.801,0.355-1.133,0.612
			s-0.589,0.57-0.771,0.94s-0.25,0.782-0.204,1.235c0.015,0.09-0.072,0.196-0.261,0.317c-0.188,0.121-0.431,0.242-0.725,0.362
			c-0.294,0.121-0.62,0.234-0.975,0.34c-0.355,0.106-0.703,0.197-1.042,0.272c-0.34,0.076-0.65,0.132-0.929,0.17
			c-0.28,0.038-0.48,0.042-0.601,0.011l-0.363-0.998c0.348-0.801,0.892-1.563,1.632-2.289c0.74-0.725,1.586-1.36,2.539-1.904
			c0.952-0.544,1.972-0.978,3.06-1.303c1.088-0.325,2.161-0.487,3.218-0.487c1.798,0,3.158,0.461,4.08,1.383
			c0.921,0.921,1.382,2.161,1.382,3.717v12.171c0,0.635,0.083,1.088,0.25,1.359c0.166,0.271,0.385,0.408,0.657,0.408
			c0.211,0,0.476-0.037,0.793-0.113c0.317-0.076,0.778-0.242,1.383-0.498L85.016,48.894z M71.779,48.372
			c0.786,0,1.643-0.207,2.573-0.623c0.929-0.416,1.968-1.115,3.116-2.097v-5.576c-1.148,0.182-2.1,0.363-2.856,0.544
			c-0.755,0.182-1.382,0.367-1.881,0.555c-0.499,0.189-0.896,0.385-1.19,0.589c-0.295,0.204-0.555,0.427-0.782,0.669
			c-0.393,0.408-0.71,0.861-0.952,1.36c-0.242,0.499-0.363,1.088-0.363,1.768c0,0.574,0.083,1.043,0.25,1.405
			c0.166,0.362,0.37,0.649,0.612,0.861s0.499,0.354,0.771,0.431S71.583,48.372,71.779,48.372z"/>
		<path d="M100.428,50.979v-1.201c1.088-0.287,1.877-0.536,2.369-0.748c0.491-0.212,0.736-0.423,0.736-0.635V36.972
			c0-0.892-0.045-1.625-0.136-2.199c-0.091-0.574-0.246-1.023-0.465-1.348c-0.219-0.325-0.502-0.552-0.85-0.68
			c-0.347-0.128-0.771-0.192-1.269-0.192c-0.438,0-0.918,0.09-1.439,0.271c-0.521,0.182-1.08,0.48-1.677,0.896
			c-0.597,0.416-1.235,0.959-1.916,1.632c-0.68,0.672-1.382,1.507-2.108,2.504v10.539c0,0.228,0.276,0.461,0.828,0.702
			c0.551,0.242,1.318,0.469,2.3,0.681v1.201H86.489v-1.201c0.997-0.257,1.764-0.487,2.301-0.691
			c0.536-0.204,0.804-0.435,0.804-0.691V35.022c0-0.589-0.019-1.058-0.057-1.405c-0.038-0.348-0.155-0.62-0.351-0.816
			s-0.502-0.34-0.918-0.431s-1.009-0.181-1.779-0.272v-1.133c1.164-0.166,2.221-0.393,3.173-0.68
			c0.952-0.287,1.896-0.642,2.833-1.065l0.838,0.839l0.25,4.85c0.74-0.922,1.515-1.738,2.323-2.448
			c0.808-0.71,1.609-1.303,2.402-1.779s1.56-0.838,2.3-1.088c0.74-0.249,1.405-0.374,1.995-0.374c0.65,0,1.277,0.102,1.881,0.306
			c0.604,0.204,1.137,0.518,1.598,0.94c0.461,0.423,0.831,0.963,1.11,1.621c0.28,0.657,0.419,1.447,0.419,2.369v13.938
			c0,0.106,0.053,0.208,0.158,0.306c0.106,0.099,0.28,0.201,0.521,0.307c0.242,0.105,0.562,0.223,0.963,0.352
			c0.4,0.128,0.896,0.268,1.485,0.419v1.201H100.428z"/>
		<path d="M144.216,44.564c0,1.073-0.154,1.991-0.465,2.753c-0.309,0.764-0.709,1.41-1.201,1.938
			c-0.49,0.528-1.041,0.952-1.654,1.27c-0.611,0.317-1.223,0.56-1.836,0.726c-0.611,0.166-1.186,0.275-1.723,0.328
			c-0.535,0.053-0.971,0.08-1.303,0.08c-0.408,0-0.854-0.035-1.338-0.103c-0.482-0.068-0.984-0.171-1.506-0.306
			c-0.521-0.137-1.055-0.311-1.598-0.521c-0.545-0.212-1.066-0.453-1.564-0.726c-0.105-0.046-0.178-0.298-0.215-0.759
			c-0.039-0.461-0.053-0.998-0.047-1.609c0.008-0.612,0.051-1.243,0.125-1.893c0.076-0.649,0.174-1.178,0.295-1.586l1.246,0.25
			c0.076,0.695,0.273,1.333,0.59,1.915c0.318,0.583,0.725,1.088,1.225,1.518c0.498,0.432,1.072,0.768,1.723,1.01
			c0.648,0.241,1.344,0.361,2.084,0.361c1.088,0,1.949-0.283,2.584-0.85s0.953-1.355,0.953-2.368c0-0.604-0.16-1.141-0.477-1.609
			c-0.318-0.469-0.736-0.899-1.258-1.292c-0.521-0.393-1.115-0.763-1.779-1.111c-0.666-0.347-1.346-0.703-2.041-1.065
			c-0.633-0.317-1.254-0.661-1.857-1.031c-0.605-0.37-1.145-0.786-1.621-1.247c-0.475-0.461-0.857-0.975-1.145-1.542
			c-0.287-0.566-0.43-1.212-0.43-1.938c0-0.937,0.203-1.775,0.611-2.516c0.408-0.74,0.945-1.364,1.609-1.87
			c0.664-0.506,1.432-0.892,2.301-1.156c0.869-0.264,1.756-0.396,2.662-0.396c0.529,0,1.092,0.042,1.689,0.125
			c0.596,0.083,1.178,0.2,1.744,0.351s1.096,0.333,1.588,0.544c0.49,0.211,0.895,0.453,1.211,0.725
			c0.092,0.076,0.107,0.291,0.047,0.646s-0.162,0.748-0.307,1.179c-0.143,0.431-0.303,0.846-0.477,1.247s-0.32,0.676-0.441,0.827
			l-1.111-0.181c-0.604-1.164-1.287-2.006-2.051-2.527c-0.762-0.521-1.553-0.782-2.367-0.782c-0.484,0-0.918,0.075-1.305,0.227
			c-0.385,0.151-0.709,0.344-0.975,0.578c-0.264,0.234-0.465,0.502-0.6,0.805c-0.137,0.302-0.205,0.612-0.205,0.929
			c0,0.483,0.137,0.917,0.408,1.303c0.273,0.385,0.639,0.748,1.1,1.088c0.461,0.34,0.998,0.668,1.609,0.986s1.258,0.657,1.938,1.02
			c0.65,0.332,1.307,0.688,1.973,1.065c0.664,0.378,1.262,0.812,1.789,1.303c0.529,0.491,0.961,1.05,1.293,1.677
			S144.216,43.718,144.216,44.564z"/>
		<path fill-rule="evenodd" clip-rule="evenodd" d="M133.825,21.88c-0.463,1.749-1.74,2.766-3.229,3.589
			c-0.115,0.062-0.246,0.097-0.367,0.146c-0.021-0.024-0.041-0.046-0.062-0.07c0.068-0.11,0.127-0.227,0.205-0.328
			c0.402-0.512,0.834-1.001,1.205-1.535c0.205-0.296,0.348-0.651,0.457-1c0.129-0.411-0.037-0.771-0.439-0.935
			c-0.328-0.134-0.689-0.252-1.039-0.259c-2.877-0.051-5.662,0.405-8.291,1.628c-0.604,0.281-1.139,0.669-1.568,1.188
			c-0.92,1.11-0.947,2.332-0.427,3.611c0.112,0.276,0.25,0.549,0.414,0.797c0.138,0.209,0.168,0.411,0.143,0.65
			c-0.323,3.072-0.457,6.151-0.294,9.237c0.126,2.399,0.332,4.793,0.464,7.192c0.125,2.282,0.06,4.564-0.139,6.842
			c-0.265,3.045-0.753,6.055-1.339,9.05c-0.174,0.893-0.359,1.784-0.547,2.674c-0.016,0.075-0.09,0.139-0.137,0.207
			c-0.053-0.074-0.139-0.142-0.153-0.223c-0.438-2.298-0.907-4.591-1.29-6.898c-0.445-2.687-0.715-5.395-0.773-8.122
			c-0.051-2.427,0.103-4.842,0.297-7.258c0.264-3.267,0.381-6.538,0.149-9.813c-0.071-0.998-0.167-1.994-0.235-2.993
			c-0.011-0.155,0.033-0.338,0.113-0.471c0.403-0.668,0.708-1.372,0.77-2.157c0.09-1.148-0.363-2.072-1.229-2.8
			c-0.9-0.757-1.98-1.16-3.088-1.49c-1.91-0.569-3.863-0.878-5.857-0.865c-0.48,0.003-0.975,0.109-1.433,0.257
			c-0.448,0.145-0.623,0.515-0.482,0.964c0.121,0.384,0.301,0.767,0.529,1.098c0.346,0.501,0.759,0.956,1.14,1.434
			c0.077,0.096,0.136,0.205,0.203,0.308c-0.016,0.022-0.031,0.045-0.047,0.067c-0.096-0.027-0.2-0.039-0.287-0.083
			c-0.896-0.464-1.711-1.036-2.376-1.805c-0.524-0.606-0.881-1.299-0.963-2.095c-0.033-0.315,0.06-0.654,0.147-0.967
			c0.436-1.558,1.115-3.019,1.823-4.467c0.008-0.016,0.03-0.026,0.041-0.035c0.257,0.514,0.51,1.031,0.774,1.542
			c0.087,0.168,0.205,0.321,0.303,0.484c0.565,0.94,1.416,1.37,2.493,1.414c1.899,0.078,3.8,0.167,5.7,0.25
			c0.028,0.001,0.057-0.01,0.129-0.022c-0.219-0.27-0.426-0.52-0.626-0.774c-1.812-2.302-3.251-4.805-4.075-7.633
			c-0.416-1.423-0.65-2.877-0.468-4.36c0.325-2.64,1.753-4.546,4.028-5.851c1.117-0.641,2.328-1.006,3.606-1.151
			c0.067-0.007,0.132-0.033,0.198-0.05c0.621,0,1.242,0,1.863,0c0.064,0.019,0.129,0.046,0.195,0.054
			c1.318,0.156,2.564,0.543,3.705,1.223c2.15,1.279,3.521,3.113,3.875,5.625c0.222,1.574-0.032,3.111-0.48,4.619
			c-0.85,2.852-2.321,5.368-4.166,7.68c-0.159,0.199-0.323,0.395-0.498,0.609c0.062,0.017,0.09,0.03,0.115,0.03
			c2.093-0.02,4.182-0.064,6.264-0.315c0.697-0.085,1.262-0.388,1.666-0.953c0.32-0.446,0.611-0.914,0.885-1.39
			c0.189-0.332,0.328-0.693,0.52-1.104c0.377,0.843,0.762,1.623,1.078,2.429c0.336,0.851,0.607,1.727,0.908,2.592
			C133.825,21.359,133.825,21.62,133.825,21.88z M119.708,19.83c0.033,0.012,0.066,0.025,0.101,0.038
			c0.048-0.027,0.107-0.044,0.144-0.083c0.627-0.674,1.277-1.328,1.873-2.029c2.123-2.503,3.479-5.346,3.815-8.648
			c0.267-2.607-0.716-4.618-2.837-6.081c-1.473-1.015-3.145-1.319-4.899-1.103c-2.658,0.328-4.536,1.723-5.567,4.211
			c-0.533,1.286-0.398,2.62-0.188,3.938c0.414,2.595,1.496,4.913,3.116,6.965c0.761,0.964,1.632,1.841,2.455,2.755
			c0.032,0.037,0.097,0.044,0.185,0.08c0-0.584,0.011-1.134-0.002-1.682c-0.029-1.248-0.537-2.239-1.597-2.927
			c-0.055-0.035-0.097-0.088-0.169-0.155c1.025-0.225,1.567-0.946,1.951-1.799c0.252-0.562,0.415-1.165,0.617-1.75
			c0.029-0.088,0.053-0.178,0.08-0.267c0.028-0.001,0.057-0.001,0.085-0.002c0.036,0.128,0.075,0.255,0.108,0.383
			c0.217,0.837,0.497,1.647,1.001,2.363c0.312,0.443,0.69,0.805,1.216,0.984c0.096,0.033,0.195,0.057,0.346,0.099
			c-0.146,0.107-0.242,0.177-0.338,0.245c-0.732,0.522-1.248,1.21-1.363,2.108C119.741,18.251,119.749,19.044,119.708,19.83z"/>
	</g>
	<g>
		<path d="M151.997,84.602c-0.967,1.013-1.898,1.866-2.799,2.562c-0.898,0.695-1.779,1.258-2.641,1.688
			c-0.861,0.432-1.703,0.74-2.525,0.93c-0.824,0.189-1.645,0.283-2.461,0.283c-1.434,0-2.848-0.316-4.238-0.951
			c-1.389-0.635-2.629-1.549-3.717-2.743c-1.088-1.193-1.963-2.655-2.629-4.386c-0.664-1.73-0.996-3.69-0.996-5.881
			c0-2.418,0.365-4.609,1.098-6.573c0.734-1.964,1.734-3.642,3.004-5.032c1.27-1.389,2.75-2.463,4.441-3.218
			c1.693-0.755,3.498-1.134,5.418-1.134c0.816,0,1.598,0.061,2.346,0.182s1.447,0.283,2.096,0.488
			c0.65,0.203,1.244,0.441,1.779,0.713c0.537,0.272,1.002,0.566,1.395,0.885c0.09,0.075,0.061,0.264-0.09,0.566
			c-0.152,0.303-0.352,0.639-0.602,1.008c-0.25,0.371-0.51,0.733-0.781,1.088c-0.273,0.355-0.5,0.624-0.68,0.805l-1.021-0.203
			c-0.77-0.906-1.672-1.613-2.707-2.119s-2.211-0.76-3.525-0.76c-0.514,0-1.068,0.091-1.666,0.271
			c-0.596,0.182-1.186,0.473-1.768,0.873s-1.145,0.922-1.688,1.564c-0.545,0.642-1.021,1.424-1.43,2.346
			c-0.406,0.922-0.736,1.994-0.984,3.219c-0.25,1.223-0.375,2.621-0.375,4.192c0,1.979,0.279,3.706,0.84,5.179
			c0.559,1.473,1.275,2.697,2.152,3.672s1.859,1.699,2.947,2.176s2.152,0.714,3.195,0.714c0.408,0,0.883-0.061,1.428-0.181
			c0.543-0.121,1.141-0.322,1.791-0.602c0.648-0.279,1.348-0.649,2.096-1.11s1.529-1.031,2.346-1.711
			c0.076,0.046,0.158,0.124,0.25,0.237c0.09,0.113,0.182,0.234,0.271,0.363s0.174,0.249,0.25,0.363
			C151.892,84.478,151.952,84.556,151.997,84.602z"/>
		<path d="M175.411,87.298c-1.283,0.893-2.43,1.576-3.434,2.052c-1.006,0.476-1.742,0.714-2.211,0.714
			c-0.527,0-0.963-0.34-1.303-1.02s-0.541-1.617-0.6-2.811c-0.682,0.695-1.361,1.284-2.041,1.768
			c-0.68,0.484-1.34,0.881-1.982,1.189c-0.643,0.311-1.258,0.533-1.848,0.67c-0.59,0.135-1.125,0.203-1.609,0.203
			c-0.574,0-1.152-0.094-1.734-0.283s-1.109-0.487-1.586-0.895c-0.477-0.408-0.865-0.93-1.168-1.564
			c-0.301-0.635-0.453-1.391-0.453-2.267c0-1.103,0.197-2.032,0.59-2.788c0.393-0.755,0.869-1.412,1.428-1.971
			c0.363-0.363,0.779-0.711,1.246-1.043c0.469-0.332,1.084-0.65,1.848-0.952s1.73-0.593,2.9-0.872
			c1.172-0.28,2.641-0.557,4.41-0.828v-3.014c0-0.499-0.055-0.964-0.16-1.395s-0.295-0.801-0.566-1.11s-0.635-0.552-1.088-0.726
			s-1.02-0.253-1.699-0.238c-0.453,0-0.893,0.076-1.314,0.227c-0.424,0.152-0.801,0.355-1.133,0.613
			c-0.334,0.256-0.59,0.57-0.771,0.939c-0.182,0.371-0.25,0.782-0.203,1.236c0.014,0.09-0.072,0.195-0.262,0.316
			s-0.43,0.242-0.725,0.363s-0.619,0.234-0.975,0.34s-0.703,0.196-1.043,0.271c-0.34,0.076-0.65,0.133-0.93,0.17
			c-0.279,0.038-0.479,0.042-0.6,0.012l-0.363-0.998c0.348-0.801,0.891-1.562,1.633-2.289c0.74-0.725,1.586-1.359,2.537-1.903
			c0.953-0.544,1.973-0.978,3.061-1.304c1.088-0.324,2.16-0.486,3.219-0.486c1.797,0,3.158,0.461,4.078,1.383
			c0.922,0.921,1.383,2.16,1.383,3.717v12.17c0,0.635,0.084,1.088,0.25,1.36s0.385,0.408,0.656,0.408
			c0.213,0,0.479-0.038,0.795-0.113c0.318-0.075,0.779-0.241,1.383-0.499L175.411,87.298z M162.175,86.777
			c0.785,0,1.643-0.208,2.572-0.624c0.93-0.414,1.969-1.113,3.117-2.096v-5.576c-1.148,0.182-2.102,0.363-2.857,0.545
			c-0.754,0.182-1.381,0.366-1.881,0.555c-0.498,0.189-0.895,0.385-1.189,0.59c-0.295,0.203-0.555,0.426-0.781,0.668
			c-0.395,0.408-0.711,0.861-0.953,1.36s-0.361,1.088-0.361,1.768c0,0.574,0.082,1.042,0.248,1.405s0.371,0.65,0.613,0.861
			c0.24,0.211,0.498,0.355,0.77,0.431S161.978,86.777,162.175,86.777z"/>
		<path d="M203.856,89.384v-1.201c1.088-0.287,1.877-0.537,2.367-0.748c0.492-0.211,0.738-0.423,0.738-0.635V75.377
			c0-0.892-0.047-1.624-0.137-2.198c-0.092-0.574-0.246-1.023-0.465-1.349s-0.502-0.552-0.85-0.681
			c-0.348-0.128-0.771-0.191-1.27-0.191c-0.438,0-0.918,0.09-1.439,0.271s-1.08,0.479-1.678,0.895
			c-0.596,0.416-1.234,0.96-1.914,1.633c-0.68,0.672-1.383,1.507-2.107,2.504V86.8c0,0.227,0.275,0.461,0.826,0.703
			c0.553,0.241,1.318,0.469,2.301,0.68v1.201h-10.312v-1.201c0.998-0.257,1.764-0.487,2.301-0.691s0.805-0.435,0.805-0.691V73.428
			c0-0.589-0.02-1.058-0.057-1.405c-0.039-0.348-0.154-0.619-0.352-0.816c-0.197-0.195-0.502-0.34-0.918-0.43
			c-0.416-0.092-1.008-0.182-1.779-0.272V69.37c1.164-0.166,2.221-0.393,3.174-0.68c0.951-0.287,1.896-0.642,2.832-1.064l0.84,0.838
			l0.248,4.851c0.74-0.922,1.516-1.737,2.324-2.448c0.809-0.709,1.609-1.303,2.402-1.779c0.793-0.476,1.559-0.838,2.301-1.088
			c0.74-0.248,1.404-0.373,1.994-0.373c0.648,0,1.275,0.102,1.881,0.306c0.604,0.204,1.137,0.518,1.598,0.94
			c0.461,0.424,0.832,0.963,1.111,1.621c0.279,0.656,0.418,1.446,0.418,2.368V86.8c0,0.105,0.053,0.208,0.16,0.307
			c0.105,0.098,0.279,0.199,0.52,0.306c0.242,0.105,0.564,0.223,0.965,0.351c0.4,0.129,0.895,0.269,1.484,0.42v1.201H203.856z"/>
		<g>
			<path d="M180.327,60.884c0,0.467-0.074,0.902-0.225,1.309s-0.357,0.764-0.621,1.072s-0.574,0.553-0.936,0.732
				c-0.361,0.182-0.746,0.271-1.152,0.271c-0.736,0-1.277-0.203-1.623-0.609c-0.348-0.406-0.52-0.992-0.52-1.76
				c0-0.467,0.078-0.902,0.236-1.309s0.369-0.764,0.633-1.072c0.262-0.309,0.566-0.549,0.914-0.723
				c0.346-0.172,0.713-0.259,1.105-0.259C179.599,58.537,180.327,59.319,180.327,60.884z M177.259,89.384v-1.195
				c1.023-0.211,1.795-0.441,2.312-0.689c0.52-0.248,0.779-0.477,0.779-0.688V74.423c0-0.768-0.012-1.387-0.033-1.861
				c-0.023-0.475-0.129-0.842-0.316-1.105s-0.492-0.455-0.914-0.576c-0.422-0.119-1.031-0.217-1.828-0.293v-1.129
				c1.068-0.18,2.148-0.42,3.238-0.721s2.064-0.641,2.922-1.016h0.994v19.09c0,0.18,0.244,0.402,0.732,0.666s1.283,0.5,2.381,0.711
				v1.195H177.259z M189.513,60.884c0,0.467-0.076,0.902-0.227,1.309s-0.357,0.764-0.621,1.072c-0.262,0.309-0.57,0.553-0.924,0.732
				c-0.354,0.182-0.734,0.271-1.141,0.271c-0.736,0-1.281-0.203-1.635-0.609s-0.531-0.992-0.531-1.76
				c0-0.467,0.08-0.902,0.236-1.309c0.158-0.406,0.369-0.764,0.633-1.072s0.572-0.549,0.926-0.723
				c0.354-0.172,0.725-0.259,1.117-0.259C188.79,58.537,189.513,59.319,189.513,60.884z"/>
		</g>
	</g>
</g>
</svg>
